<svg xmlns="http://www.w3.org/2000/svg" viewBox="90 440 895 175">
  <defs>
    <style>
      .st0 { fill: #322e2b; }
      .st1 { fill: #f26a0a; }
      .st2 { stroke: #000; stroke-miterlimit: 10; stroke-width: 1.34px; }
      .st3 { fill: #070602; }
    </style>
  </defs>
  <g>
    <path class="st3" d="M185.78,480.2c-16.08,2.91-29.57,8.96-39.19,23.08-24.03,35.28.36,83.49,42.44,83.29,19.13-.09,34.53-10.05,45-25.66.16-.46.62-.83.47-1.46h-45.41v-25.19c0-.05.66-.73.71-.73h79.71l-.47,79.73h-24.84c-.05,0-.71-.68-.71-.73v-21.77c-5.05,4.1-9.77,8.34-15.47,11.64-53.26,30.86-121.16-10.64-116.98-74.5,2.51-38.37,32.8-68.96,69.36-73.07,22.71-2.55,47.69,1.17,65.45,16.81-3.75,2.86-19.67,19.53-23.02,19.72-.61.03-5.54-3.84-6.77-4.56-9.47-5.54-19.57-7.12-30.28-6.59Z"/>
    <path class="st1" d="M273.77,613.25v-84.13h-84.68c2.48-2.85,5.3-5.49,8.04-8.08,16.06-15.18,32.5-30.09,48.95-44.77,2.07-1.15,4.12-1.92,6.52-1.33,16.82,15.42,32.92,31.85,49.45,47.67l.05,77.62c-.89,4.87-2.49,9.51-7.09,11.75-.51.25-3.23,1.27-3.5,1.27h-17.74Z"/>
    <path class="st0" d="M185.78,480.2c-31.22,11.2-43.3,51.54-20.58,77.78,17.78,20.53,49.11,20.41,68.84,2.93-1.74,4.81-7.3,10.93-11.13,14.17-21.73,18.39-54.87,16.36-73.53-5.62-28.99-34.14-7.1-87.11,36.41-89.26Z"/>
  </g>
  <g>
    <path class="st2" d="M404.69,542.62c-6.64,4.02-14.34,5.74-22.78,5.74-19.26,0-30.07-8.6-30.07-25.32,0-19.58,15-32.37,36.46-32.37,8.44,0,14.91,1.97,20.32,5.74l-5.65,11.96c-4.83-2.95-9.34-4.18-14.5-4.18-12.45,0-20.65,7.05-20.65,17.45,0,8.85,5.82,13.19,16.14,13.19,2.29,0,4.51-.25,6.64-.66l1.31-8.11h-11.8l1.8-11.8h27.29l-4.51,28.35Z"/>
    <path class="st2" d="M415.92,523.12c0-18.76,14.59-32.45,34.91-32.45,16.55,0,27.29,9.18,27.29,25.24,0,18.76-14.59,32.45-34.91,32.45-16.55,0-27.29-9.18-27.29-25.24ZM462.06,516.89c0-7.78-4.75-12.54-12.62-12.54-10.32,0-17.45,8.19-17.45,17.78,0,7.78,4.83,12.54,12.7,12.54,10.24,0,17.37-8.19,17.37-17.78Z"/>
    <path class="st2" d="M484.51,523.12c0-18.76,14.59-32.45,34.91-32.45,16.55,0,27.29,9.18,27.29,25.24,0,18.76-14.59,32.45-34.91,32.45-16.55,0-27.29-9.18-27.29-25.24ZM530.65,516.89c0-7.78-4.75-12.54-12.62-12.54-10.32,0-17.45,8.19-17.45,17.78,0,7.78,4.83,12.54,12.7,12.54,10.24,0,17.37-8.19,17.37-17.78Z"/>
    <path class="st2" d="M612.18,515.74c0,18.44-13.11,31.63-33.02,31.63h-27.29l8.85-55.72h25.97c16.06,0,25.48,8.44,25.48,24.09ZM596.2,516.73c0-7.95-4.26-11.72-12.78-11.72h-9.1l-4.59,29.01h9.34c10.98,0,17.12-7.7,17.12-17.29Z"/>
    <path class="st2" d="M700.44,530.66c0,11.23-9.26,16.72-23.03,16.72h-35.48l8.85-55.72h33.19c12.7,0,18.6,4.51,18.6,13.77,0,7.54-3.93,11.72-10.41,13.6,5.65,1.8,8.28,5.65,8.28,11.64ZM684.7,529.18c0-2.62-1.72-3.85-5.57-3.85h-17.95l-1.47,9.18h18.27c4.1,0,6.72-1.97,6.72-5.33ZM664.46,504.52l-1.39,9.01h16.8c4.34,0,6.8-1.88,6.8-5.24,0-2.54-1.56-3.77-5.16-3.77h-17.04Z"/>
    <path class="st2" d="M753.54,526.97l10.82,20.4h-17.29l-10.08-19.26h-10.49l-3.03,19.26h-15.73l8.85-55.72h32.69c12.37,0,18.68,5.16,18.68,16.06,0,9.83-5.24,16.72-14.42,19.26ZM728.55,515.33h15.4c5.08,0,7.87-2.29,7.87-6.31,0-3.11-1.64-4.51-6.23-4.51h-15.32l-1.72,10.82Z"/>
    <path class="st2" d="M813.69,536.88h-22.45l-5.82,10.49h-16.8l32.61-55.72h16.22l15,55.72h-16.39l-2.38-10.49ZM797.87,525h13.19l-3.85-18.27-9.34,18.27Z"/>
    <path class="st2" d="M904.97,491.65l-8.85,55.72h-13.77l-20.81-36.87-5.82,36.87h-14.99l8.85-55.72h17.29l18.11,32.12,5-32.12h15Z"/>
    <path class="st2" d="M969.14,515.74c0,18.44-13.11,31.63-33.02,31.63h-27.29l8.85-55.72h25.98c16.06,0,25.48,8.44,25.48,24.09ZM953.16,516.73c0-7.95-4.26-11.72-12.78-11.72h-9.09l-4.59,29.01h9.34c10.98,0,17.13-7.7,17.13-17.29Z"/>
  </g>
  <g>
    <path class="st2" d="M379.7,598.92l-5.71-7.92h-7.41v7.92h-2.55v-19.24h11.54c4.02,0,6.28,2.04,6.28,5.66,0,3.17-1.75,5.12-4.89,5.57l5.83,8.01h-3.08ZM366.58,588.79h8.52c2.77,0,4.16-1.13,4.16-3.45s-1.39-3.45-4.16-3.45h-8.52v6.9Z"/>
    <path class="st2" d="M389.29,581.89v6.2h12.39v2.21h-12.39v6.42h14.23v2.21h-16.78v-19.24h16.78v2.21h-14.23Z"/>
    <path class="st2" d="M425.6,579.68v19.24h-2.4l-13.1-16.63v16.63h-2.46v-19.24h3.51l12,15.22v-15.22h2.46Z"/>
    <path class="st2" d="M430.01,589.3c0-5.97,4.19-9.96,10.5-9.96s10.5,3.99,10.5,9.96-4.19,9.96-10.5,9.96-10.5-3.99-10.5-9.96ZM448.4,589.3c0-4.61-3.17-7.64-7.89-7.64s-7.89,3.03-7.89,7.64,3.17,7.64,7.89,7.64,7.89-3.03,7.89-7.64Z"/>
    <path class="st2" d="M472.64,579.68l-8.71,19.24h-2.57l-8.71-19.24h2.8l7.27,16.21,7.24-16.21h2.69Z"/>
    <path class="st2" d="M487.51,593.86h-10.55l-2.38,5.06h-2.66l9.08-19.24h2.57l9.08,19.24h-2.77l-2.38-5.06ZM477.98,591.65h8.52l-4.24-9.19-4.27,9.19Z"/>
    <path class="st2" d="M509.12,581.89h-7.72v17.03h-2.55v-17.03h-7.72v-2.21h17.99v2.21Z"/>
    <path class="st2" d="M512.99,579.68h2.55v19.24h-2.55v-19.24Z"/>
    <path class="st2" d="M519.95,589.3c0-5.97,4.19-9.96,10.5-9.96s10.5,3.99,10.5,9.96-4.19,9.96-10.5,9.96-10.5-3.99-10.5-9.96ZM538.34,589.3c0-4.61-3.17-7.64-7.89-7.64s-7.89,3.03-7.89,7.64,3.17,7.64,7.89,7.64,7.89-3.03,7.89-7.64Z"/>
    <path class="st2" d="M563.31,579.68v19.24h-2.4l-13.1-16.63v16.63h-2.46v-19.24h3.51l12,15.22v-15.22h2.46Z"/>
    <path class="st2" d="M575.75,591.48c0-1.02.71-1.78,1.7-1.78s1.64.74,1.67,1.78c0,1.02-.68,1.78-1.7,1.78s-1.7-.76-1.67-1.78Z"/>
    <path class="st2" d="M590.54,589.33c0-6.03,4.13-9.99,10.64-9.99,2.69,0,5.09.68,7.1,2.04l-.93,2.15c-1.95-1.27-4.05-1.87-6.2-1.87-4.89,0-8.01,3.06-8.01,7.64s3.23,7.64,8.32,7.64c2.43,0,4.55-.68,6.45-2.07l1.08,2.15c-1.78,1.42-4.64,2.24-7.67,2.24-6.59,0-10.78-3.88-10.78-9.93Z"/>
    <path class="st2" d="M611.84,589.3c0-5.97,4.19-9.96,10.5-9.96s10.5,3.99,10.5,9.96-4.19,9.96-10.5,9.96-10.5-3.99-10.5-9.96ZM630.23,589.3c0-4.61-3.17-7.64-7.89-7.64s-7.89,3.03-7.89,7.64,3.17,7.64,7.89,7.64,7.89-3.03,7.89-7.64Z"/>
    <path class="st2" d="M655.2,579.68v19.24h-2.4l-13.1-16.63v16.63h-2.46v-19.24h3.51l12,15.22v-15.22h2.46Z"/>
    <path class="st2" d="M659.27,596.4l1.22-2.07c2.15,1.67,5.04,2.6,8.09,2.6,3.99,0,6.11-1.19,6.11-3.51,0-1.84-1.73-2.63-6.28-2.94-6-.4-8.34-1.9-8.34-5.35,0-3.62,3.08-5.8,8.26-5.8,3.08,0,5.74.79,7.84,2.32l-1.13,2.07c-1.84-1.36-4.19-2.07-6.9-2.07-3.4,0-5.46,1.27-5.46,3.39,0,1.84,1.7,2.63,6.28,2.94,6,.4,8.35,1.9,8.35,5.35,0,3.82-3.11,5.91-8.74,5.91-3.62,0-6.93-1.02-9.28-2.86Z"/>
    <path class="st2" d="M697.74,581.89h-7.72v17.03h-2.55v-17.03h-7.72v-2.21h17.99v2.21Z"/>
    <path class="st2" d="M717.28,598.92l-5.71-7.92h-7.41v7.92h-2.55v-19.24h11.54c4.02,0,6.28,2.04,6.28,5.66,0,3.17-1.75,5.12-4.89,5.57l5.83,8.01h-3.08ZM704.16,588.79h8.52c2.77,0,4.16-1.13,4.16-3.45s-1.39-3.45-4.16-3.45h-8.52v6.9Z"/>
    <path class="st2" d="M724.01,591.93v-12.25h2.55v11.83c0,3.59,2.18,5.43,6.39,5.43s6.39-1.84,6.39-5.43v-11.83h2.46v12.22c0,4.7-3.2,7.36-8.88,7.36s-8.91-2.63-8.91-7.33Z"/>
    <path class="st2" d="M745.9,589.33c0-6.03,4.13-9.99,10.64-9.99,2.69,0,5.09.68,7.1,2.04l-.93,2.15c-1.95-1.27-4.05-1.87-6.2-1.87-4.89,0-8.01,3.06-8.01,7.64s3.23,7.64,8.32,7.64c2.43,0,4.55-.68,6.45-2.07l1.08,2.15c-1.78,1.42-4.64,2.24-7.67,2.24-6.59,0-10.78-3.88-10.78-9.93Z"/>
    <path class="st2" d="M784.65,581.89h-7.72v17.03h-2.55v-17.03h-7.72v-2.21h17.99v2.21Z"/>
    <path class="st2" d="M788.52,579.68h2.55v19.24h-2.55v-19.24Z"/>
    <path class="st2" d="M795.48,589.3c0-5.97,4.19-9.96,10.5-9.96s10.5,3.99,10.5,9.96-4.19,9.96-10.5,9.96-10.5-3.99-10.5-9.96ZM813.87,589.3c0-4.61-3.17-7.64-7.89-7.64s-7.89,3.03-7.89,7.64,3.17,7.64,7.89,7.64,7.89-3.03,7.89-7.64Z"/>
    <path class="st2" d="M838.84,579.68v19.24h-2.4l-13.1-16.63v16.63h-2.46v-19.24h3.51l12,15.22v-15.22h2.46Z"/>
  </g>
</svg>
