<?xml version="1.0" encoding="UTF-8"?>
<svg id="Layer_1" xmlns="http://www.w3.org/2000/svg" version="1.1" viewBox="100 440 885 185">
  <!-- Generator: Adobe Illustrator 29.6.1, SVG Export Plug-In . SVG Version: 2.1.1 Build 9)  -->
  <defs>
    <style>
      .st0 {
        fill: #f2f4f5;
      }
    </style>
  </defs>
  <g>
    <path class="st0" d="M188.96,529.57c-9.15,5.54-19.78,7.91-31.42,7.91-26.56,0-41.47-11.87-41.47-34.92,0-27.01,20.68-44.64,50.29-44.64,11.64,0,20.57,2.71,28.03,7.91l-7.8,16.5c-6.67-4.07-12.88-5.76-20-5.76-17.18,0-28.48,9.72-28.48,24.07,0,12.21,8.02,18.19,22.26,18.19,3.16,0,6.22-.34,9.15-.9l1.81-11.19h-16.27l2.49-16.27h37.63l-6.22,39.1Z"/>
    <path class="st0" d="M204.44,502.67c0-25.88,20.12-44.75,48.14-44.75,22.83,0,37.63,12.66,37.63,34.81,0,25.88-20.12,44.75-48.14,44.75-22.83,0-37.63-12.66-37.63-34.81ZM268.06,494.09c0-10.74-6.55-17.29-17.4-17.29-14.24,0-24.07,11.3-24.07,24.52,0,10.74,6.67,17.29,17.52,17.29,14.13,0,23.96-11.3,23.96-24.52Z"/>
    <path class="st0" d="M299.02,502.67c0-25.88,20.12-44.75,48.14-44.75,22.83,0,37.63,12.66,37.63,34.81,0,25.88-20.12,44.75-48.14,44.75-22.83,0-37.63-12.66-37.63-34.81ZM362.64,494.09c0-10.74-6.55-17.29-17.4-17.29-14.24,0-24.07,11.3-24.07,24.52,0,10.74,6.67,17.29,17.52,17.29,14.13,0,23.96-11.3,23.96-24.52Z"/>
    <path class="st0" d="M475.07,492.5c0,25.43-18.08,43.62-45.54,43.62h-37.63l12.2-76.84h35.82c22.15,0,35.15,11.64,35.15,33.22ZM453.04,493.86c0-10.96-5.88-16.16-17.63-16.16h-12.54l-6.33,40h12.88c15.14,0,23.62-10.62,23.62-23.84Z"/>
    <path class="st0" d="M596.77,513.07c0,15.48-12.77,23.05-31.75,23.05h-48.93l12.2-76.84h45.77c17.52,0,25.65,6.22,25.65,18.99,0,10.4-5.42,16.16-14.35,18.76,7.8,2.49,11.41,7.8,11.41,16.05ZM575.08,511.04c0-3.62-2.37-5.31-7.68-5.31h-24.75l-2.03,12.66h25.2c5.65,0,9.27-2.71,9.27-7.35ZM547.16,477.02l-1.92,12.43h23.17c5.99,0,9.38-2.6,9.38-7.23,0-3.5-2.15-5.2-7.12-5.2h-23.5Z"/>
    <path class="st0" d="M670,507.99l14.92,28.14h-23.84l-13.9-26.56h-14.46l-4.18,26.56h-21.7l12.2-76.84h45.09c17.06,0,25.77,7.12,25.77,22.15,0,13.56-7.23,23.05-19.89,26.56ZM635.53,491.94h21.25c7.01,0,10.85-3.16,10.85-8.7,0-4.29-2.26-6.22-8.59-6.22h-21.13l-2.37,14.92Z"/>
    <path class="st0" d="M752.94,521.66h-30.96l-8.02,14.46h-23.17l44.98-76.84h22.38l20.68,76.84h-22.6l-3.28-14.46ZM731.13,505.27h18.19l-5.31-25.2-12.88,25.2Z"/>
    <path class="st0" d="M878.82,459.28l-12.21,76.84h-18.98l-28.7-50.85-8.02,50.85h-20.68l12.2-76.84h23.84l24.97,44.3,6.89-44.3h20.68Z"/>
    <path class="st0" d="M967.3,492.5c0,25.43-18.08,43.62-45.54,43.62h-37.63l12.2-76.84h35.82c22.15,0,35.15,11.64,35.15,33.22ZM945.26,493.86c0-10.96-5.88-16.16-17.63-16.16h-12.54l-6.33,40h12.88c15.14,0,23.62-10.62,23.62-23.84Z"/>
  </g>
  <g>
    <path class="st0" d="M234.4,607.2l-7.88-10.92h-10.22v10.92h-3.51v-26.52h15.91c5.54,0,8.66,2.81,8.66,7.8,0,4.37-2.42,7.06-6.75,7.68l8.03,11.04h-4.25ZM216.3,593.24h11.74c3.82,0,5.73-1.56,5.73-4.76s-1.91-4.76-5.73-4.76h-11.74v9.52Z"/>
    <path class="st0" d="M247.62,583.73v8.54h17.08v3.04h-17.08v8.85h19.62v3.04h-23.13v-26.52h23.13v3.04h-19.62Z"/>
    <path class="st0" d="M297.7,580.68v26.52h-3.32l-18.06-22.93v22.93h-3.39v-26.52h4.84l16.54,20.98v-20.98h3.39Z"/>
    <path class="st0" d="M303.78,593.94c0-8.23,5.77-13.73,14.47-13.73s14.47,5.5,14.47,13.73-5.77,13.73-14.47,13.73-14.47-5.5-14.47-13.73ZM329.13,593.94c0-6.36-4.37-10.53-10.88-10.53s-10.88,4.17-10.88,10.53,4.37,10.53,10.88,10.53,10.88-4.17,10.88-10.53Z"/>
    <path class="st0" d="M362.55,580.68l-12.01,26.52h-3.55l-12.01-26.52h3.86l10.02,22.35,9.98-22.35h3.71Z"/>
    <path class="st0" d="M383.07,600.22h-14.55l-3.28,6.98h-3.67l12.52-26.52h3.55l12.52,26.52h-3.82l-3.28-6.98ZM369.92,597.18h11.74l-5.85-12.68-5.89,12.68Z"/>
    <path class="st0" d="M412.86,583.73h-10.65v23.48h-3.51v-23.48h-10.65v-3.04h24.81v3.04Z"/>
    <path class="st0" d="M418.21,580.68h3.51v26.52h-3.51v-26.52Z"/>
    <path class="st0" d="M427.8,593.94c0-8.23,5.77-13.73,14.47-13.73s14.47,5.5,14.47,13.73-5.77,13.73-14.47,13.73-14.47-5.5-14.47-13.73ZM453.15,593.94c0-6.36-4.37-10.53-10.88-10.53s-10.88,4.17-10.88,10.53,4.37,10.53,10.88,10.53,10.88-4.17,10.88-10.53Z"/>
    <path class="st0" d="M487.59,580.68v26.52h-3.31l-18.06-22.93v22.93h-3.39v-26.52h4.84l16.54,20.98v-20.98h3.39Z"/>
    <path class="st0" d="M504.75,596.95c0-1.4.98-2.46,2.34-2.46s2.26,1.01,2.3,2.46c0,1.4-.94,2.46-2.34,2.46s-2.34-1.05-2.3-2.46Z"/>
    <path class="st0" d="M525.14,593.98c0-8.31,5.69-13.77,14.67-13.77,3.71,0,7.02.94,9.79,2.81l-1.29,2.96c-2.69-1.75-5.58-2.57-8.54-2.57-6.75,0-11.04,4.21-11.04,10.53s4.45,10.53,11.47,10.53c3.35,0,6.28-.94,8.89-2.85l1.48,2.96c-2.46,1.95-6.4,3.08-10.57,3.08-9.09,0-14.86-5.34-14.86-13.69Z"/>
    <path class="st0" d="M554.51,593.94c0-8.23,5.77-13.73,14.47-13.73s14.47,5.5,14.47,13.73-5.77,13.73-14.47,13.73-14.47-5.5-14.47-13.73ZM579.86,593.94c0-6.36-4.37-10.53-10.88-10.53s-10.88,4.17-10.88,10.53,4.37,10.53,10.88,10.53,10.88-4.17,10.88-10.53Z"/>
    <path class="st0" d="M614.3,580.68v26.52h-3.31l-18.06-22.93v22.93h-3.39v-26.52h4.84l16.54,20.98v-20.98h3.39Z"/>
    <path class="st0" d="M619.91,603.73l1.68-2.85c2.96,2.3,6.94,3.59,11.15,3.59,5.5,0,8.42-1.64,8.42-4.84,0-2.54-2.38-3.63-8.66-4.06-8.27-.55-11.51-2.61-11.51-7.37,0-4.99,4.25-8,11.39-8,4.25,0,7.92,1.09,10.8,3.2l-1.56,2.85c-2.54-1.87-5.77-2.85-9.52-2.85-4.68,0-7.53,1.75-7.53,4.68,0,2.54,2.34,3.63,8.66,4.06,8.27.55,11.5,2.61,11.5,7.37,0,5.27-4.29,8.15-12.05,8.15-4.99,0-9.56-1.4-12.79-3.94Z"/>
    <path class="st0" d="M672.95,583.73h-10.65v23.48h-3.51v-23.48h-10.65v-3.04h24.81v3.04Z"/>
    <path class="st0" d="M699.9,607.2l-7.88-10.92h-10.22v10.92h-3.51v-26.52h15.91c5.54,0,8.66,2.81,8.66,7.8,0,4.37-2.42,7.06-6.75,7.68l8.04,11.04h-4.25ZM681.8,593.24h11.74c3.82,0,5.73-1.56,5.73-4.76s-1.91-4.76-5.73-4.76h-11.74v9.52Z"/>
    <path class="st0" d="M709.18,597.57v-16.89h3.51v16.3c0,4.95,3,7.49,8.81,7.49s8.81-2.54,8.81-7.49v-16.3h3.39v16.85c0,6.47-4.41,10.14-12.25,10.14s-12.29-3.63-12.29-10.1Z"/>
    <path class="st0" d="M739.37,593.98c0-8.31,5.69-13.77,14.67-13.77,3.71,0,7.02.94,9.79,2.81l-1.29,2.96c-2.69-1.75-5.58-2.57-8.54-2.57-6.75,0-11.04,4.21-11.04,10.53s4.45,10.53,11.47,10.53c3.35,0,6.28-.94,8.89-2.85l1.48,2.96c-2.46,1.95-6.4,3.08-10.57,3.08-9.09,0-14.86-5.34-14.86-13.69Z"/>
    <path class="st0" d="M792.8,583.73h-10.65v23.48h-3.51v-23.48h-10.65v-3.04h24.81v3.04Z"/>
    <path class="st0" d="M798.14,580.68h3.51v26.52h-3.51v-26.52Z"/>
    <path class="st0" d="M807.73,593.94c0-8.23,5.77-13.73,14.47-13.73s14.47,5.5,14.47,13.73-5.77,13.73-14.47,13.73-14.47-5.5-14.47-13.73ZM833.09,593.94c0-6.36-4.37-10.53-10.88-10.53s-10.88,4.17-10.88,10.53,4.37,10.53,10.88,10.53,10.88-4.17,10.88-10.53Z"/>
    <path class="st0" d="M867.52,580.68v26.52h-3.31l-18.06-22.93v22.93h-3.39v-26.52h4.84l16.54,20.98v-20.98h3.39Z"/>
  </g>
</svg>